<svg xmlns="http://www.w3.org/2000/svg" xmlns:xlink="http://www.w3.org/1999/xlink" width="748.163" height="748.163" viewBox="0 0 748.163 748.163"><defs><linearGradient id="uuid-b0568c2f-b856-41c7-9bf8-0bca775771ea" x1="263.49" x2="490.983" y1="102.973" y2="102.973" gradientTransform="matrix(1, 0, 0, 1, 0, 0)" gradientUnits="userSpaceOnUse"><stop offset="0" stop-color="#9f0d63"/><stop offset=".456" stop-color="#6214ad"/><stop offset="1" stop-color="#1734bf"/></linearGradient><linearGradient id="uuid-2799d98e-9a59-4fcc-9306-621a68209a36" x1="204.144" x2="550.329" y1="163.308" y2="163.308" xlink:href="#uuid-b0568c2f-b856-41c7-9bf8-0bca775771ea"/><linearGradient id="uuid-47d230aa-c3bd-4e94-9413-c1fce22a05b3" x1="160.129" x2="594.344" y1="228.589" y2="228.589" xlink:href="#uuid-b0568c2f-b856-41c7-9bf8-0bca775771ea"/><linearGradient id="uuid-e7aec656-02c6-4d08-b2cb-3f22d2437ed7" x1="78.528" x2="675.945" y1="298.815" y2="298.815" xlink:href="#uuid-b0568c2f-b856-41c7-9bf8-0bca775771ea"/><linearGradient id="uuid-3d4c0273-8278-42af-b601-418735e4e6ca" x1="41.932" x2="712.542" y1="373.986" y2="373.986" xlink:href="#uuid-b0568c2f-b856-41c7-9bf8-0bca775771ea"/><linearGradient id="uuid-237d7d1d-b4fe-4ed4-ae34-668a27266b4c" x1="264.479" y1="645" y2="645" xlink:href="#uuid-b0568c2f-b856-41c7-9bf8-0bca775771ea"/><linearGradient id="uuid-7bdf8402-40fc-47fb-8a23-e5d1715b38f4" x1="204.144" x2="550.329" y1="584.665" y2="584.665" xlink:href="#uuid-b0568c2f-b856-41c7-9bf8-0bca775771ea"/><linearGradient id="uuid-997d1b32-d373-4889-b6fa-7d7d98c88826" x1="160.129" x2="594.344" y1="519.384" y2="519.384" xlink:href="#uuid-b0568c2f-b856-41c7-9bf8-0bca775771ea"/><linearGradient id="uuid-9fec1a16-56bd-4f7d-bc0e-ff9cc32bbf33" x1="78.528" x2="676.439" y1="449.158" y2="449.158" xlink:href="#uuid-b0568c2f-b856-41c7-9bf8-0bca775771ea"/><linearGradient id="uuid-3e2a3a84-5c6d-4a91-bab5-2f4c974e3dbc" x1="82.14" x2="666.022" y1="379.081" y2="379.081" gradientTransform="matrix(1, 0, 0, 1, 0, 0)" gradientUnits="userSpaceOnUse"><stop offset="0" stop-color="#e2eea3"/><stop offset=".333" stop-color="#ea1c78"/><stop offset=".667" stop-color="#9f0d63"/><stop offset="1" stop-color="#41092e"/></linearGradient><linearGradient id="uuid-f26cd387-d8f9-4be7-ba96-94b0c54ae938" x1="82.14" x2="775.818" y1="374.081" y2="374.081" xlink:href="#uuid-3e2a3a84-5c6d-4a91-bab5-2f4c974e3dbc"/><linearGradient id="uuid-e341b222-bf1f-4a96-9cdf-cdffc797e2e7" x1="82.14" x2="944.491" y1="374.081" y2="374.081" xlink:href="#uuid-3e2a3a84-5c6d-4a91-bab5-2f4c974e3dbc"/><linearGradient id="uuid-9fb89820-2405-488a-9d2f-3b0340b9f975" x1="-218.829" x2="-165.314" y1="647.552" y2="647.552" gradientTransform="translate(539 991.93536) scale(1 -1)" gradientUnits="userSpaceOnUse"><stop offset="0" stop-color="#544d40"/><stop offset=".167" stop-color="#aca495"/><stop offset=".333" stop-color="#dbd2c3"/><stop offset=".5" stop-color="#e9e0d1"/><stop offset=".667" stop-color="#dbd2c3"/><stop offset=".833" stop-color="#aca495"/><stop offset="1" stop-color="#544d40"/></linearGradient><linearGradient id="uuid-4b7db746-6557-4d1b-8007-b279434ec6c4" x1="-159.435" x2="-105.92" y1="647.626" y2="647.626" xlink:href="#uuid-9fb89820-2405-488a-9d2f-3b0340b9f975"/><linearGradient id="uuid-2805adee-2c33-4c67-847f-7d60788c9174" y1="588.081" y2="588.081" xlink:href="#uuid-9fb89820-2405-488a-9d2f-3b0340b9f975"/><linearGradient id="uuid-04f29d95-ef37-4e64-be38-7f3721939cc8" x1="-159.435" x2="-105.92" y1="588.156" y2="588.156" xlink:href="#uuid-9fb89820-2405-488a-9d2f-3b0340b9f975"/><linearGradient id="uuid-5c97c161-1760-44da-85dd-ef2f0d0d0fd1" x1="-102.829" x2="-49.313" xlink:href="#uuid-9fb89820-2405-488a-9d2f-3b0340b9f975"/><linearGradient id="uuid-81181464-6095-49f4-8549-aad155ef4baf" x1="-43.433" x2="10.083" y1="647.626" y2="647.626" xlink:href="#uuid-9fb89820-2405-488a-9d2f-3b0340b9f975"/><linearGradient id="uuid-e43eefd0-6fa9-4e6b-8d39-dc8cb7ad67e7" x1="-102.829" x2="-49.313" y1="588.081" y2="588.081" xlink:href="#uuid-9fb89820-2405-488a-9d2f-3b0340b9f975"/><linearGradient id="uuid-5cc39630-982a-40bd-9bc7-a80dd3b9e1f6" x1="-43.433" x2="10.083" y1="588.156" y2="588.156" xlink:href="#uuid-9fb89820-2405-488a-9d2f-3b0340b9f975"/><linearGradient id="uuid-796527ca-a0b6-45a5-acb4-c36271e3c948" x1="-340.711" x2="-287.196" xlink:href="#uuid-9fb89820-2405-488a-9d2f-3b0340b9f975"/><linearGradient id="uuid-bbb343e9-612c-48d6-8628-5f3e87e2d85f" x1="-281.24" x2="-227.725" y1="647.627" y2="647.627" xlink:href="#uuid-9fb89820-2405-488a-9d2f-3b0340b9f975"/><linearGradient id="uuid-c5071923-49fa-437e-896b-c5fdd59c34fb" x1="-340.711" x2="-287.196" y1="588.156" y2="588.156" xlink:href="#uuid-9fb89820-2405-488a-9d2f-3b0340b9f975"/><linearGradient id="uuid-b2b857a8-266f-4042-a5ed-de1f11c94d30" x1="-281.24" x2="-227.724" y1="588.081" y2="588.081" xlink:href="#uuid-9fb89820-2405-488a-9d2f-3b0340b9f975"/></defs><g id="uuid-e7c7f3bc-fd69-444c-9949-c87a5179e992" data-name="Lines"><rect width="227.493" height="14.836" x="263.49" y="95.555" fill="url(#uuid-b0568c2f-b856-41c7-9bf8-0bca775771ea)"/><rect width="346.185" height="19.782" x="204.144" y="153.417" fill="url(#uuid-2799d98e-9a59-4fcc-9306-621a68209a36)"/><rect width="434.215" height="24.727" x="160.129" y="216.225" fill="url(#uuid-47d230aa-c3bd-4e94-9413-c1fce22a05b3)"/><rect width="597.416" height="29.673" x="78.528" y="283.978" fill="url(#uuid-e7aec656-02c6-4d08-b2cb-3f22d2437ed7)"/><rect width="670.61" height="34.618" x="41.932" y="356.677" fill="url(#uuid-3d4c0273-8278-42af-b601-418735e4e6ca)"/><rect width="226.504" height="14.836" x="264.479" y="637.582" fill="url(#uuid-237d7d1d-b4fe-4ed4-ae34-668a27266b4c)"/><rect width="346.185" height="19.782" x="204.144" y="574.774" fill="url(#uuid-7bdf8402-40fc-47fb-8a23-e5d1715b38f4)"/><rect width="434.215" height="24.727" x="160.129" y="507.02" fill="url(#uuid-997d1b32-d373-4889-b6fa-7d7d98c88826)"/><rect width="597.911" height="28.684" x="78.528" y="434.816" fill="url(#uuid-9fec1a16-56bd-4f7d-bc0e-ff9cc32bbf33)"/></g><polygon id="uuid-c534157a-04dd-456a-8de8-8275adb31836" fill="#606060" fill-rule="evenodd" points="82.14 374.081 374.081 693.354 666.022 374.081 82.14 374.081" data-name="Shadow"/><g id="uuid-9ce992fe-9d22-4034-99ef-d8935c0c02f0" data-name="Diamond"><polygon fill="url(#uuid-3e2a3a84-5c6d-4a91-bab5-2f4c974e3dbc)" points="374.081 92.14 82.14 374.081 374.081 666.022 666.022 374.081 374.081 92.14"/><polygon fill="url(#uuid-f26cd387-d8f9-4be7-ba96-94b0c54ae938)" points="374.081 154.721 82.14 374.081 374.081 593.442 666.022 374.081 374.081 154.721"/><polygon fill="url(#uuid-e341b222-bf1f-4a96-9cdf-cdffc797e2e7)" points="374.081 228.23 82.14 374.081 374.081 519.933 666.022 374.081 374.081 228.23"/></g><g id="uuid-88eedaa2-2f8c-4e2e-98f8-4e84b20743dc" data-name="2021"><path fill="#fff6e6" d="M310.12999,691.04287c-1.78516,0-2.90723,.96875-2.90723,3.51855v3.82422h-5.30273v-3.4668c0-5.71191,2.85547-8.97559,8.3623-8.97559,5.50781,0,8.36328,3.26367,8.36328,8.97559,0,11.21875-11.16797,15.40039-11.16797,21.26465,0,.25488,0,.50977,.05176,.76465h10.60645v5.09961h-16.21582v-4.38574c0-10.50488,11.11621-12.23828,11.11621-22.54004,0-3.21191-1.12207-4.0791-2.90625-4.0791Z"/><path fill="#fff6e6" d="M346.69738,694.91885c0-5.71191,3.00879-8.97559,8.5166-8.97559,5.50684,0,8.51562,3.26367,8.51562,8.97559v18.56152c0,5.71191-3.00879,8.97559-8.51562,8.97559-5.50781,0-8.5166-3.26367-8.5166-8.97559v-18.56152Zm5.60938,18.91895c0,2.5498,1.12207,3.51855,2.90723,3.51855,1.78418,0,2.90625-.96875,2.90625-3.51855v-19.27637c0-2.5498-1.12207-3.51855-2.90625-3.51855-1.78516,0-2.90723,.96875-2.90723,3.51855v19.27637Z"/><path fill="#fff6e6" d="M400.27648,691.04287c-1.7842,0-2.90625,.96875-2.90625,3.51855v3.82422h-5.30371v-3.4668c0-5.71191,2.85547-8.97559,8.36328-8.97559s8.36328,3.26367,8.36328,8.97559c0,11.21875-11.16797,15.40039-11.16797,21.26465,0,.25488,0,.50977,.05078,.76465h10.60742v5.09961h-16.2168v-4.38574c0-10.50488,11.11719-12.23828,11.11719-22.54004,0-3.21191-1.12207-4.0791-2.90723-4.0791Z"/><path fill="#fff6e6" d="M438.6798,690.83877c4.33496,0,5.30371-2.09082,6.1709-4.4873h3.77344v35.69629h-5.60938v-27.23145h-4.33496v-3.97754Z"/></g><g id="uuid-3d2d26cd-ee8f-41e6-a3fa-22e3b0048411" data-name="CSS"><g><path fill="#fff6e6" d="M320.17056,371.14102c1.48374-28.83721,24.67757-52.03114,53.51499-53.5151v53.5151h-53.51499Z"/><path fill="#fff6e6" d="M379.56477,317.55174h53.51566c-1.48407,28.83724-24.6779,52.03128-53.51533,53.51501l-.00033-53.51501Z"/><path fill="#fff6e6" d="M320.17056,430.6122c1.48374-28.83742,24.67757-52.03159,53.51499-53.51532v53.51532h-53.51499Z"/><path fill="#fff6e6" d="M379.56477,377.02194h53.51566c-1.48407,28.83775-24.6779,52.03159-53.51533,53.51565l-.00033-53.51565Z"/><path fill="#fff6e6" d="M436.17146,371.14102c1.48407-28.83721,24.6779-52.03114,53.51496-53.5151l.00035,53.5151h-53.51531Z"/><path fill="#fff6e6" d="M495.567,317.55174h53.51566c-1.48543,28.83724-24.67823,52.03128-53.51566,53.51501v-53.51501Z"/><path fill="#fff6e6" d="M436.17146,430.6122c1.48407-28.83742,24.6779-52.03159,53.51496-53.51532l.00035,53.51532h-53.51531Z"/><path fill="#fff6e6" d="M495.567,377.02194h53.51566c-1.48543,28.83775-24.67823,52.03159-53.51566,53.51565v-53.51565Z"/><path fill="#fff6e6" d="M198.28919,371.14102c1.48397-28.83721,24.67788-52.03114,53.51523-53.5151v53.5151h-53.51523Z"/><path fill="#fff6e6" d="M311.27493,317.55042c-1.48374,28.83762-24.67791,52.03158-53.51498,53.51565v-53.51565h53.51498Z"/><path fill="#fff6e6" d="M251.80442,430.53759c-28.83735-1.48407-52.03127-24.6779-53.51523-53.51565h53.51523v53.51565Z"/><path fill="#fff6e6" d="M257.75994,377.09688c28.83775,1.48373,52.03159,24.6779,53.51565,53.51532h-53.51565v-53.51532Z"/></g><g><path fill="url(#uuid-9fb89820-2405-488a-9d2f-3b0340b9f975)" fill-opacity=".4" d="M320.17056,371.14102c1.48374-28.83721,24.67757-52.03114,53.51499-53.5151v53.5151h-53.51499Z"/><path fill="url(#uuid-4b7db746-6557-4d1b-8007-b279434ec6c4)" fill-opacity=".4" d="M379.56477,317.55174h53.51566c-1.48407,28.83724-24.6779,52.03128-53.51533,53.51501l-.00033-53.51501Z"/><path fill="url(#uuid-2805adee-2c33-4c67-847f-7d60788c9174)" fill-opacity=".4" d="M320.17056,430.6122c1.48374-28.83742,24.67757-52.03159,53.51499-53.51532v53.51532h-53.51499Z"/><path fill="url(#uuid-04f29d95-ef37-4e64-be38-7f3721939cc8)" fill-opacity=".4" d="M379.56477,377.02194h53.51566c-1.48407,28.83775-24.6779,52.03159-53.51533,53.51565l-.00033-53.51565Z"/><path fill="url(#uuid-5c97c161-1760-44da-85dd-ef2f0d0d0fd1)" fill-opacity=".4" d="M436.17146,371.14102c1.48407-28.83721,24.6779-52.03114,53.51496-53.5151l.00035,53.5151h-53.51531Z"/><path fill="url(#uuid-81181464-6095-49f4-8549-aad155ef4baf)" fill-opacity=".4" d="M495.567,317.55174h53.51566c-1.48543,28.83724-24.67823,52.03128-53.51566,53.51501v-53.51501Z"/><path fill="url(#uuid-e43eefd0-6fa9-4e6b-8d39-dc8cb7ad67e7)" fill-opacity=".4" d="M436.17146,430.6122c1.48407-28.83742,24.6779-52.03159,53.51496-53.51532l.00035,53.51532h-53.51531Z"/><path fill="url(#uuid-5cc39630-982a-40bd-9bc7-a80dd3b9e1f6)" fill-opacity=".4" d="M495.567,377.02194h53.51566c-1.48543,28.83775-24.67823,52.03159-53.51566,53.51565v-53.51565Z"/><path fill="url(#uuid-796527ca-a0b6-45a5-acb4-c36271e3c948)" fill-opacity=".4" d="M198.28919,371.14102c1.48397-28.83721,24.67788-52.03114,53.51523-53.5151v53.5151h-53.51523Z"/><path fill="url(#uuid-bbb343e9-612c-48d6-8628-5f3e87e2d85f)" fill-opacity=".4" d="M311.27493,317.55042c-1.48374,28.83762-24.67791,52.03158-53.51498,53.51565v-53.51565h53.51498Z"/><path fill="url(#uuid-c5071923-49fa-437e-896b-c5fdd59c34fb)" fill-opacity=".4" d="M251.80442,430.53759c-28.83735-1.48407-52.03127-24.6779-53.51523-53.51565h53.51523v53.51565Z"/><path fill="url(#uuid-b2b857a8-266f-4042-a5ed-de1f11c94d30)" fill-opacity=".4" d="M257.75994,377.09688c28.83775,1.48373,52.03159,24.6779,53.51565,53.51532h-53.51565v-53.51532Z"/></g></g><g id="uuid-21d5b350-6fb4-4b23-90f3-19a1cfe5df74" data-name="STATE OF"><path fill="#fff6e6" d="M228.96398,20.64932c5.45703,0,8.26172,3.26367,8.26172,8.97559v1.12109h-5.30371v-1.47852c0-2.5498-1.01953-3.51855-2.80471-3.51855s-2.80467,.96875-2.80467,3.51855c0,7.34375,10.96387,8.7207,10.96387,18.91895,0,5.71191-2.85547,8.97559-8.36328,8.97559-5.50684,0-8.36328-3.26367-8.36328-8.97559v-2.19238h5.30371v2.5498c0,2.5498,1.12207,3.46777,2.90723,3.46777,1.78418,0,2.90625-.91797,2.90625-3.46777,0-7.34375-10.96387-8.7207-10.96387-18.91895,0-5.71191,2.80469-8.97559,8.26074-8.97559Z"/><path fill="#fff6e6" d="M264.49718,21.05752h17.33789v5.09961h-5.86426v30.59668h-5.60938V26.15713h-5.86426v-5.09961Z"/><path fill="#fff6e6" d="M326.00988,56.75381h-5.66016l-.96875-6.47656h-6.88477l-.96875,6.47656h-5.15039l5.71191-35.69629h8.20996l5.71094,35.69629Zm-12.7998-11.32129h5.40625l-2.70312-18.05176-2.70312,18.05176Z"/><path fill="#fff6e6" d="M350.55382,21.05752h17.33789v5.09961h-5.86426v30.59668h-5.60938V26.15713h-5.86426v-5.09961Z"/><path fill="#fff6e6" d="M401.28722,36.10049h7.7002v5.09961h-7.7002v10.4541h9.68848v5.09961h-15.29785V21.05752h15.29785v5.09961h-9.68848v9.94336Z"/><path fill="#fff6e6" d="M472.89171,29.6249c0-5.71191,3.00781-8.97559,8.51562-8.97559s8.5166,3.26367,8.5166,8.97559v18.56152c0,5.71191-3.00879,8.97559-8.5166,8.97559s-8.51562-3.26367-8.51562-8.97559V29.6249Zm5.60938,18.91895c0,2.5498,1.12109,3.51855,2.90625,3.51855s2.90723-.96875,2.90723-3.51855V29.26748c0-2.5498-1.12207-3.51855-2.90723-3.51855s-2.90625,.96875-2.90625,3.51855v19.27637Z"/><path fill="#fff6e6" d="M523.97667,36.9169h7.24121v5.09961h-7.24121v14.7373h-5.60938V21.05752h14.83984v5.09961h-9.23047v10.75977Z"/></g></svg>